<svg version="1.1" id="Layer_1" xmlns="http://www.w3.org/2000/svg" xmlns:xlink="http://www.w3.org/1999/xlink" x="0px" y="0px" viewBox="0 0 495.3 61.2" style="enable-background:new 0 0 495.3 61.2;" xml:space="preserve">
<style type="text/css">
  .st0{fill:#ED1C24;}
</style>
<g>
  <path class="st0" d="M52.9,0L0,0v28.1c0.5,5.6,2.1,10.8,4.9,15.5c2.3,3.8,5.3,7.2,8.9,10.2c6.3,5.2,12.5,7.4,12.5,7.4l0.2,0.1
    l0.2-0.1c6-2.5,11.1-5.8,15.1-9.7c3.3-3.2,5.9-6.8,7.7-10.8c3.3-6.9,3.2-12.5,3.2-12.5L52.9,0z M52,1c0,0.9,0,10,0,26.2
    c0,0.6,0,0.9,0,0.9c0,0.2,0,5.7-3.3,12.4c-1.9,3.8-4.4,7.3-7.6,10.4c-3.9,3.8-8.8,6.9-14.5,9.4c-0.8-0.3-6.7-2.6-12.6-7.6
    c-3.4-2.9-6.3-6.2-8.4-9.8c-2.6-4.5-4.2-9.4-4.6-14.7V0.9c1.1,0,13.5,0,25.6,0C38.5,0.9,50.9,1,52,1"></path>
  <path class="st0" d="M20.2,40.3v-6.5c-1.7,0.8-3.8,4.1-3.8,4.1l-0.1,5.8C17.7,41.7,20.2,40.3,20.2,40.3"></path>
  <path class="st0" d="M11,40.1l0.1-5.6c-0.6-0.2-1.1-0.1-1.1-0.1l-0.1,6.6c2.2,0.7,4.8,3,4.8,3C13.9,42,11,40.1,11,40.1"></path>
  <path class="st0" d="M25.8,59.4c0.2,0.1,0.4,0.2,0.4,0.2l0.1,0l0.1,0l0.1-0.1c0.2-0.1,0.3-0.1,0.5-0.2
    c18.6-7.9,22.9-22.2,23.9-28.5c0.3-1.9,0.3-3.1,0.3-3.2l0-0.6l0-0.6l0.1-24.8h-0.4H1.6v26.6C3.5,49,22.7,58.1,25.8,59.4 M34.4,19.2
    c0,0,2.1,2.4,2.6,3.9c0.3-1.4,0.8-3.5,1.2-4.8c-0.2,0-1.2-0.1-3.5-2.3c0,0-3.2-2.9-3.2-3.9c0,0,2.9-0.1,4.6,2.5
    c0,0,1.9,2.4,2.1,3.6c0.2-0.5,0.3-1,0.4-1.2l0.2-0.6c0,0,0.4-1.1,0.9-2.2c-0.3-0.1-1-0.4-2.5-2.3c0,0-2.3-2.8-2.2-3.6
    c0,0,2.4,0.3,3.5,2.6c0,0,1.1,2.1,1.3,3.1c0.4-0.8,0.7-1.6,1-2.1l0.5-0.9c0,0,0.1-0.2,0.3-0.6c-0.2-0.1-0.8-0.5-1.7-2.4
    c0,0-1.4-2.7-1.2-3.4c0,0,1.9,0.7,2.4,2.8c0,0,0.6,1.8,0.5,2.7c0.3-0.6,0.8-1.5,1.6-2.3c-0.2-0.2-0.5-0.7-0.6-2.3c0,0-0.4-2.5,0-3
    c0,0,1.3,1.1,1.1,2.9c0,0-0.1,1.4-0.3,2.2l0.1-0.1c0.1-0.2,0.4-0.6,1.7-1.6c0,0,2-1.6,3.1-1.5c0,0,0,0.7-2.4,2.1c0,0-1,0.6-2,0.9
    C43.3,8.3,42.8,9,42.8,9s-0.3,0.5-0.8,1.3c0.3-0.3,0.9-0.7,1.8-1.2c0,0,2.6-1.7,3.8-1.3c0,0-0.1,0.9-3.1,2.2c0,0-1.6,0.7-2.9,0.9
    c-0.5,0.9-1.1,2.1-1.6,3.5c0.3-0.3,0.9-0.8,2.5-1.7c0,0,3.2-1.9,4.6-1.4c0,0-0.2,1-3.8,2.5c0,0-1.9,0.8-3.5,1l-0.2,0.5l-0.1,0.3
    l-0.2,0.7l-0.1,0.4c0,0-0.3,0.8-0.6,2c0.3-0.3,1.2-0.9,3.1-1.9c0,0,3.9-2,5.6-1.4c0,0-0.2,1.2-4.6,2.8c0,0-2.3,0.8-4.2,0.9
    c-0.4,1.5-0.9,3.4-1.1,4.9c0.4-0.4,1.4-1,3.8-2.1c0,0,4.7-2.3,6.7-1.5c0,0-0.3,1.4-5.6,3.1c0,0-2.7,0.8-4.9,1c0,0.5,0,0.9,0.1,1.2
    c0,0-0.8,0.6-0.9-0.6c0,0,0.1-0.5,0.3-1.3c-0.4,0-1.6-0.4-4.1-2.5c0,0-4-3.2-4-4.4C28.8,16.5,32.2,16.3,34.4,19.2 M2.4,2.4h23.9
    v24.4v1h24c0,1.3-0.5,21.2-24,31c0,0,0,0,0,0v-31v-0.1h-1H2.4C2.4,24.3,2.4,3.1,2.4,2.4 M8.5,32.8c0,0,1.6-0.2,2.5,0.4v-0.9
    c0,0,2.5,0,5.1,3.6c0,0,2.3-3,5.2-3.9v1c0,0,1.9-0.4,2.6-0.3l-0.1,9.1c0,0-3.5,1.5-7,5.3h-1.1c0,0-3.6-3.8-7.3-5.2L8.5,32.8z"></path>
  <path class="st0" d="M24.6,9.6c0,0,0.4-0.9-0.3-0.1l-0.7,0.8c0,0,0-0.9-0.6,0.1c0,0-0.9,1-1.3,1.4c0,0-2.7,2.2-3.5,6.3l-0.3,0
    c0,0-1.2-1.5-1.6-2.6c-1.1-2.6-4-3.5-4-3.5c-1.1-0.4-3.1-1.5-3.1-1.5c-1.9-0.9-4.4-4-4.4-4l0,0C4.6,6.2,4.5,6.2,4.5,6.2
    s0.2,1.4,0.9,2.2c0,0-1.3-0.8-1.8-1.7c0,0-0.7-0.5-0.3,0.4c0,0,0.9,1.8,1.7,2.5c0,0-1.8-1.1-2.1-1.5c0,0-0.6-0.2,2,2.4
    c0,0-1.3-0.5-1.7-0.8c0,0,0.6,0.8,2.1,1.8c0,0-2.6-0.9-0.1,0.5L6,12.8L5.5,13c0,0,1.3,0.5,1.8,1.1c0,0,2,2.8,5.2,5
    c0,0,2.1,1.3,2.6,1.6c0,0-1.3,1-6.3,2.6c0,0-1.1-0.1,0.2,0.9c0,0,4.8,1.6,5.6,0.4c0,0,0.7-1.7,1-1.3l0.3,0.5l0.1,0.6l0.3,0.5
    l1.7-0.1l0.4,0.2L17.4,26l-0.2,0.2l2.9-0.1l-0.2-0.4c0,0-1.4-0.7-1.6-1.4c0,0-0.2-1.3,0.2-1.9c0,0,1.9-0.9,2.4-2.6
    c0,0,0.6-1.2,1.3-1.6l0.7,0c0,0,0.7-0.2,1-0.1c0,0,0.5-0.2-1.5-0.8c0,0-0.3-0.6-1.4-0.5l-0.2,0c0,0,0.8-2,1.8-2.9
    c0,0,0.7-1,0.8-1.9c0,0,1-1.9,1.5-2.4C25,9.9,25.6,9.1,24.6,9.6 M22.1,17.3L22.1,17.3l-0.2,0.1l-0.2,0.1l-0.1,0.3l0.3,0.1l0.2,0.1
    l0,0.2l-0.3,0.2l-0.5,0.1l-0.7,0.3L20.5,19l-0.5,0.3l-0.1,0.2l-0.3,0.1l-0.2-0.2l-0.2-0.4L19,18.9l-0.2-0.2l-0.4-0.3l-0.2-0.2
    l0.4-0.3l0.6-0.2c0,0,0.3,0,1.2-0.5C21.4,16.8,22.1,17.3,22.1,17.3"></path>
  <polygon class="st0" points="43,44.1 39.9,38.7 36.8,44.1  "></polygon>
  <polygon class="st0" points="38.8,36.8 36.2,32.3 29.6,44.1 34.7,44.1  "></polygon>
  <path d="M96,19.1c1.4,1.3,2.6,2.9,3.4,4.8c0.8,1.9,1.3,4,1.3,6.4c0,2.1-0.4,4.1-1.1,6.1c-0.7,1.9-1.7,3.6-3.1,5
    c-1.4,1.4-3.1,2.6-5,3.4c-1.9,0.8-4.2,1.2-6.8,1.2c-2.1,0-4.1-0.3-6-1c-1.9-0.7-3.6-1.7-5-3c-1.4-1.3-2.6-2.9-3.4-4.8
    c-0.8-1.9-1.3-3.9-1.3-6.2c0-2.4,0.4-4.5,1.2-6.5c0.8-1.9,1.9-3.6,3.4-5c1.4-1.4,3.1-2.4,5-3.1c1.9-0.7,4-1.1,6.2-1.1
    c2.2,0,4.2,0.4,6.1,1.1C93,16.8,94.6,17.8,96,19.1 M90.7,40c0.6-1.2,1.1-2.7,1.3-4.2c0.3-1.6,0.4-3.4,0.4-5.3
    c0-1.7-0.1-3.3-0.4-4.9c-0.2-1.6-0.6-3-1.2-4.3c-0.6-1.2-1.4-2.3-2.3-3c-1-0.8-2.2-1.1-3.6-1.1c-2.5,0-4.4,1.2-5.7,3.5
    c-1.3,2.4-1.9,5.7-1.9,10c0,1.8,0.1,3.5,0.4,5.2c0.3,1.6,0.7,3,1.3,4.2c0.6,1.2,1.4,2.2,2.3,2.9c0.9,0.7,2.1,1,3.5,1
    c1.4,0,2.5-0.3,3.5-1C89.4,42.1,90.2,41.2,90.7,40"></path>
  <path d="M130.5,35.7l-0.6,9.4H103v-1.6c0.5,0,1-0.1,1.7-0.2c0.6-0.1,1.1-0.2,1.3-0.3c0.5-0.2,0.8-0.5,1-0.8
    c0.2-0.3,0.3-0.8,0.3-1.3V20.3c0-0.5-0.1-0.9-0.2-1.2c-0.2-0.3-0.5-0.6-1.1-0.9c-0.4-0.2-0.9-0.3-1.5-0.5c-0.6-0.1-1.1-0.2-1.4-0.3
    v-1.6h16v1.6c-0.4,0-1,0.1-1.6,0.2c-0.6,0.1-1.1,0.2-1.6,0.3c-0.5,0.2-0.9,0.5-1.1,0.8c-0.2,0.4-0.3,0.8-0.3,1.3v19.2
    c0,0.9,0.1,1.6,0.2,2.1c0.1,0.5,0.4,0.9,0.7,1.2c0.4,0.3,0.9,0.4,1.5,0.5c0.6,0.1,1.5,0.1,2.6,0.1c1.1,0,2.2-0.1,3.2-0.2
    c1-0.1,1.8-0.4,2.2-0.9c0.7-0.7,1.4-1.7,2.1-3c0.7-1.3,1.3-2.4,1.8-3.5H130.5z"></path>
  <path d="M149.3,45h-16.2v-1.6c0.4,0,0.9-0.1,1.6-0.1c0.7-0.1,1.2-0.1,1.5-0.2c0.5-0.2,0.9-0.5,1-0.8c0.2-0.3,0.3-0.8,0.3-1.3V20.3
    c0-0.5-0.1-0.9-0.3-1.2c-0.2-0.4-0.5-0.6-1-0.9c-0.3-0.1-0.8-0.3-1.5-0.4c-0.6-0.1-1.2-0.2-1.7-0.3v-1.6h16.2v1.6
    c-0.4,0-0.9,0.1-1.5,0.2c-0.6,0.1-1.1,0.2-1.6,0.3c-0.5,0.2-0.9,0.5-1.1,0.8c-0.2,0.4-0.3,0.8-0.3,1.3v20.7c0,0.5,0.1,0.9,0.3,1.3
    c0.2,0.4,0.5,0.6,1.1,0.9c0.3,0.1,0.8,0.2,1.4,0.4c0.7,0.1,1.2,0.2,1.7,0.2V45z"></path>
  <path d="M185.9,17.5c-0.4,0-0.9,0.1-1.3,0.2c-0.4,0.1-0.8,0.3-1.3,0.6c-0.6,0.3-1,0.7-1.4,1.1c-0.3,0.4-0.6,0.9-1,1.6
    c-0.4,0.9-1,2.3-1.8,4.1c-0.8,1.8-1.6,3.9-2.6,6.2c-0.9,2.1-1.8,4.4-2.8,6.8c-1,2.5-2,4.9-2.9,7.1h-4.1c-1.9-4.7-3.9-9.5-5.9-14.3
    c-2-4.9-3.4-8.2-4.2-10.1c-0.3-0.7-0.6-1.2-0.9-1.6c-0.3-0.3-0.8-0.7-1.4-1.1c-0.5-0.3-0.9-0.4-1.2-0.5c-0.4-0.1-0.8-0.2-1.4-0.3
    v-1.6h15.8v1.6c-1.5,0.2-2.5,0.4-3,0.6c-0.5,0.2-0.8,0.4-0.8,0.8c0,0.2,0,0.3,0.1,0.5c0,0.2,0.1,0.4,0.2,0.7
    c0.4,1.2,1.2,3.2,2.4,5.9c1.2,2.7,2.9,6.9,5.1,12.5c1.4-3.4,2.5-6.3,3.5-8.6c0.9-2.4,1.7-4.4,2.4-6.2c0.3-0.9,0.6-1.7,0.9-2.5
    c0.2-0.8,0.3-1.3,0.3-1.7c0-0.4-0.3-0.8-0.9-1.1c-0.6-0.3-1.8-0.5-3.5-0.7v-1.6h11.8V17.5z"></path>
  <path d="M213.3,23.3h-1.6c-0.4-1.1-1.1-2.2-2.1-3.4c-1-1.1-1.9-1.8-2.9-2c-0.4-0.1-1-0.2-1.7-0.2c-0.7,0-1.3,0-1.8,0H199V29h3
    c0.8,0,1.4-0.1,2.1-0.3c0.6-0.2,1.2-0.5,1.7-1c0.3-0.3,0.6-0.9,1-1.7c0.3-0.8,0.5-1.5,0.6-2.1h1.6v12.2h-1.6
    c-0.1-0.6-0.3-1.3-0.6-2.2c-0.3-0.9-0.7-1.5-1-1.8c-0.5-0.5-1-0.8-1.6-1c-0.6-0.2-1.3-0.3-2.1-0.3h-3v8.4c0,0.9,0.1,1.6,0.2,2.1
    c0.1,0.5,0.4,0.9,0.7,1.2c0.3,0.3,0.8,0.4,1.4,0.5c0.6,0.1,1.4,0.1,2.4,0.1c0.5,0,1.1,0,1.7,0c0.7,0,1.3-0.1,1.8-0.1
    c0.6-0.1,1.1-0.2,1.6-0.3c0.5-0.1,0.9-0.3,1.1-0.6c0.7-0.7,1.4-1.7,2.2-3.1c0.8-1.4,1.4-2.4,1.6-3.1h1.5l-0.6,9.1h-27.4v-1.6
    c0.4,0,0.9-0.1,1.6-0.2c0.7-0.1,1.1-0.2,1.4-0.3c0.5-0.2,0.9-0.5,1-0.8c0.2-0.3,0.3-0.8,0.3-1.3V20.3c0-0.5-0.1-0.9-0.2-1.2
    c-0.1-0.3-0.5-0.6-1.1-0.9c-0.4-0.2-0.9-0.3-1.5-0.4c-0.6-0.1-1.1-0.2-1.5-0.3v-1.6h25.9V23.3z"></path>
  <path d="M245.3,24.2h-1.6c-0.4-1.2-1.1-2.6-2-4c-0.9-1.4-1.8-2.2-2.6-2.3c-0.4-0.1-1-0.1-1.6-0.1c-0.6,0-1.2-0.1-1.7-0.1h-1v22.9
    c0,0.5,0.1,0.9,0.3,1.3c0.2,0.4,0.5,0.7,1,0.9c0.3,0.1,0.8,0.3,1.5,0.4c0.7,0.1,1.2,0.2,1.7,0.3V45h-16.3v-1.6c0.4,0,1-0.1,1.7-0.2
    c0.7-0.1,1.2-0.2,1.5-0.3c0.5-0.2,0.9-0.5,1.1-0.9c0.2-0.4,0.3-0.8,0.3-1.3V17.7h-1c-0.5,0-1,0-1.7,0.1c-0.6,0-1.2,0.1-1.6,0.1
    c-0.8,0.1-1.7,0.9-2.6,2.3c-0.9,1.4-1.6,2.8-2,4H217v-8.3h28.3V24.2z"></path>
  <path d="M290.2,45h-15.9v-1.6c0.7-0.1,1.6-0.2,2.6-0.4c1-0.2,1.5-0.5,1.5-0.8c0-0.1,0-0.2,0-0.4c0-0.1-0.1-0.3-0.2-0.6l-2.5-6
    h-10.1c-0.2,0.6-0.5,1.2-0.8,2c-0.3,0.8-0.5,1.4-0.7,2c-0.3,0.8-0.4,1.3-0.5,1.7c-0.1,0.3-0.1,0.6-0.1,0.7c0,0.4,0.3,0.8,1,1.1
    c0.7,0.3,1.8,0.5,3.3,0.7V45h-12v-1.6c0.5,0,1-0.1,1.5-0.2c0.6-0.1,1-0.3,1.3-0.5c0.6-0.3,1-0.7,1.4-1.2c0.4-0.5,0.7-1,1-1.7
    c1.6-3.8,3.2-7.7,4.8-11.6c1.6-3.9,3.4-8.1,5.3-12.8h4.1c2.7,6.6,4.8,11.8,6.3,15.7c1.5,3.8,2.8,7,3.9,9.5c0.2,0.4,0.4,0.8,0.7,1.1
    c0.3,0.3,0.7,0.7,1.2,1c0.4,0.2,0.8,0.4,1.3,0.5c0.5,0.1,1,0.2,1.4,0.2V45z M274.9,33.2l-4.2-10.5l-4.2,10.5H274.9z"></path>
  <path d="M305.2,45.8c-2.1,0-4.1-0.3-6-1c-1.9-0.7-3.5-1.7-4.9-3c-1.4-1.3-2.4-2.9-3.2-4.8c-0.8-1.9-1.2-4-1.2-6.3
    c0-2.3,0.4-4.4,1.2-6.3c0.8-1.9,1.9-3.6,3.3-5c1.4-1.4,3.1-2.5,5-3.2c2-0.8,4.1-1.1,6.3-1.1c1.6,0,3.1,0.2,4.4,0.6
    c1.3,0.4,2.5,0.8,3.4,1.3l1.3-1.1h1.8l0.2,10.7H315c-1-3.3-2.3-5.6-3.7-7.2c-1.4-1.5-3.2-2.3-5.3-2.3c-2.6,0-4.5,1.1-5.9,3.4
    c-1.3,2.3-2,5.5-2,9.6c0,2.3,0.2,4.3,0.7,5.9c0.5,1.6,1.1,3,1.8,4c0.8,1,1.7,1.8,2.8,2.3c1.1,0.5,2.3,0.7,3.6,0.7
    c1.9,0,3.6-0.5,5.1-1.6c1.5-1,2.9-2.6,4.1-4.7l1.8,1.1c-0.6,1.2-1.3,2.3-2,3.2c-0.8,1-1.6,1.8-2.6,2.5c-1.1,0.8-2.3,1.3-3.6,1.8
    C308.5,45.6,307,45.8,305.2,45.8"></path>
  <path d="M352.6,45h-15.9v-1.6c0.7-0.1,1.6-0.2,2.6-0.4c1-0.2,1.5-0.5,1.5-0.8c0-0.1,0-0.2,0-0.4c0-0.1-0.1-0.3-0.2-0.6l-2.5-6H328
    c-0.2,0.6-0.5,1.2-0.8,2c-0.3,0.8-0.5,1.4-0.7,2c-0.3,0.8-0.4,1.3-0.5,1.7c0,0.3-0.1,0.6-0.1,0.7c0,0.4,0.3,0.8,1,1.1
    c0.7,0.3,1.8,0.5,3.3,0.7V45h-12v-1.6c0.5,0,1-0.1,1.5-0.2c0.6-0.1,1-0.3,1.3-0.5c0.6-0.3,1-0.7,1.4-1.2c0.4-0.5,0.7-1,1-1.7
    c1.6-3.8,3.2-7.7,4.8-11.6c1.6-3.9,3.4-8.1,5.3-12.8h4.1c2.7,6.6,4.8,11.8,6.3,15.7c1.5,3.8,2.8,7,3.9,9.5c0.2,0.4,0.4,0.8,0.7,1.1
    c0.3,0.3,0.7,0.7,1.2,1c0.4,0.2,0.8,0.4,1.3,0.5c0.5,0.1,1,0.2,1.4,0.2V45z M337.3,33.2L333,22.7l-4.2,10.5H337.3z"></path>
  <path d="M381,18.9c1.8,1.2,3.2,2.7,4.3,4.7c1.1,1.9,1.6,4.3,1.6,7.1c0,2.5-0.5,4.6-1.5,6.4c-1,1.8-2.3,3.3-3.9,4.5
    c-1.6,1.2-3.5,2-5.6,2.6c-2.1,0.6-4.3,0.9-6.6,0.9h-14.7v-1.6c0.4,0,1-0.1,1.6-0.1c0.7-0.1,1.1-0.2,1.3-0.2c0.5-0.2,0.8-0.5,1-0.8
    c0.2-0.3,0.3-0.8,0.3-1.3V20.3c0-0.5-0.1-0.9-0.3-1.3c-0.2-0.4-0.5-0.7-1-0.9c-0.5-0.2-1.1-0.4-1.7-0.5c-0.6-0.1-1-0.1-1.3-0.2
    v-1.6h15.5c1.7,0,3.4,0.2,5.3,0.6C377.4,16.9,379.3,17.7,381,18.9 M376.8,39.8c0.7-1.1,1.2-2.4,1.5-3.9c0.3-1.5,0.5-3.3,0.5-5.2
    c0-1.9-0.2-3.7-0.6-5.3c-0.4-1.6-1-3-1.8-4.1c-0.8-1.1-1.8-2-3-2.6c-1.2-0.6-2.5-0.9-4-0.9c-0.5,0-1,0-1.6,0c-0.6,0-1.1,0-1.4,0.1
    v22.1c0,0.5,0.1,0.9,0.2,1.3c0.1,0.4,0.4,0.7,0.7,1c0.3,0.3,0.7,0.5,1.2,0.7c0.5,0.2,1.1,0.2,1.8,0.2c1.5,0,2.9-0.3,4-0.9
    C375.2,41.7,376.1,40.9,376.8,39.8"></path>
  <path d="M414.7,23.3h-1.6c-0.4-1.1-1.1-2.2-2.1-3.4c-1-1.1-1.9-1.8-2.9-2c-0.4-0.1-1-0.2-1.7-0.2c-0.7,0-1.3,0-1.8,0h-4.2V29h3
    c0.8,0,1.4-0.1,2.1-0.3c0.6-0.2,1.2-0.5,1.7-1c0.3-0.3,0.6-0.9,1-1.7c0.3-0.8,0.5-1.5,0.6-2.1h1.6v12.2h-1.6
    c-0.1-0.6-0.3-1.3-0.6-2.2c-0.3-0.9-0.7-1.5-1-1.8c-0.5-0.5-1-0.8-1.6-1c-0.6-0.2-1.3-0.3-2.1-0.3h-3v8.4c0,0.9,0.1,1.6,0.2,2.1
    c0.1,0.5,0.4,0.9,0.7,1.2c0.3,0.3,0.8,0.4,1.4,0.5c0.6,0.1,1.4,0.1,2.4,0.1c0.5,0,1.1,0,1.7,0c0.7,0,1.3-0.1,1.8-0.1
    c0.6-0.1,1.1-0.2,1.6-0.3c0.5-0.1,0.9-0.3,1.1-0.6c0.7-0.7,1.4-1.7,2.2-3.1c0.8-1.4,1.4-2.4,1.6-3.1h1.5l-0.6,9.1h-27.4v-1.6
    c0.4,0,0.9-0.1,1.6-0.2c0.7-0.1,1.1-0.2,1.4-0.3c0.5-0.2,0.9-0.5,1-0.8c0.2-0.3,0.3-0.8,0.3-1.3V20.3c0-0.5-0.1-0.9-0.2-1.2
    c-0.2-0.3-0.5-0.6-1.1-0.9c-0.4-0.2-0.9-0.3-1.5-0.4c-0.6-0.1-1.1-0.2-1.5-0.3v-1.6h25.9V23.3z"></path>
  <path d="M460.2,45h-15.8v-1.6c0.5,0,1-0.1,1.7-0.2c0.7-0.1,1.1-0.2,1.4-0.3c0.5-0.2,0.9-0.5,1.1-0.8c0.2-0.4,0.3-0.8,0.3-1.4V18.9
    l-10,25.6h-2.6c-0.1-0.5-0.4-1.3-0.9-2.7c-0.5-1.3-0.9-2.4-1.2-3.2l-7.4-20v17.7c0,1.7,0.1,3,0.3,3.9c0.2,0.9,0.6,1.5,1.1,1.9
    c0.3,0.3,1,0.6,1.8,0.8c0.9,0.3,1.5,0.4,1.9,0.5V45h-12.5v-1.6c0.3,0,0.9-0.1,1.7-0.3c0.8-0.1,1.4-0.4,1.9-0.8
    c0.5-0.4,0.9-1,1.1-1.9c0.2-0.9,0.3-2.2,0.3-3.9V22.1c0-0.9-0.1-1.6-0.3-2.2c-0.2-0.6-0.5-1-1-1.4c-0.5-0.4-1.1-0.7-1.7-0.8
    c-0.6-0.1-1.2-0.2-1.7-0.2v-1.6h13.4l7.2,19.2l6.1-15.6c0.2-0.6,0.4-1.3,0.6-2.1c0.2-0.8,0.3-1.3,0.3-1.6h12.9v1.6
    c-0.4,0-0.9,0.1-1.4,0.2c-0.5,0.1-0.9,0.2-1.4,0.3c-0.5,0.2-0.9,0.5-1.1,0.8c-0.2,0.4-0.3,0.8-0.3,1.3v20.7c0,0.5,0.1,0.9,0.3,1.2
    c0.2,0.3,0.5,0.6,1.1,0.9c0.3,0.1,0.7,0.2,1.3,0.3c0.6,0.1,1.1,0.2,1.5,0.2V45z"></path>
  <path d="M495.3,17.5c-0.5,0.1-0.9,0.1-1.4,0.3c-0.4,0.1-0.8,0.3-1.2,0.5c-0.6,0.3-1.1,0.8-1.6,1.3c-0.5,0.5-0.9,1.1-1.3,1.7
    c-0.9,1.3-1.8,2.7-2.8,4.2c-1,1.5-2,3.2-3.2,5c-0.8,1.2-1.2,2.1-1.4,2.7c-0.2,0.6-0.3,1.7-0.3,3.2v4.1c0,0.5,0.1,0.9,0.3,1.3
    c0.2,0.4,0.5,0.7,1.1,0.9c0.2,0.1,0.7,0.2,1.5,0.4c0.8,0.2,1.3,0.3,1.7,0.3V45h-16.3v-1.6c0.4,0,0.9-0.1,1.7-0.2
    c0.7-0.1,1.2-0.2,1.5-0.3c0.5-0.2,0.9-0.5,1-0.9c0.2-0.4,0.3-0.8,0.3-1.3v-5.1c0-0.5,0-0.8,0-1.2c0-0.3-0.1-0.6-0.1-0.9
    c-0.1-0.3-0.3-0.6-0.5-1c-0.2-0.4-0.5-0.9-0.9-1.6c-1.1-1.9-2.1-3.6-3.1-5.3c-1-1.7-1.9-3.2-2.8-4.7c-0.5-0.8-0.9-1.4-1.4-1.8
    c-0.5-0.5-1-0.8-1.5-1.1c-0.4-0.2-0.8-0.4-1.3-0.5c-0.5-0.1-1-0.2-1.4-0.2v-1.6h16.7v1.6c-1.5,0-2.6,0.1-3.1,0.3
    c-0.5,0.2-0.8,0.4-0.8,0.7c0,0.2,0.1,0.5,0.3,0.9c0.2,0.5,0.6,1.1,1.1,2.1c0.5,0.9,1.2,2.1,2,3.7c0.9,1.6,2,3.4,3.2,5.5
    c2.6-4.1,4.4-7,5.4-8.6c1-1.6,1.5-2.6,1.5-3c0-0.5-0.3-0.8-0.9-1.1c-0.6-0.2-1.5-0.4-2.8-0.5v-1.6h10.8V17.5z"></path>
</g>
</svg>